<svg width="113" height="60" viewBox="0 0 113 60" fill="none" xmlns="http://www.w3.org/2000/svg">
<path d="M10.3785 22.0061C13.0735 22.3089 15.1552 22.4604 16.6238 22.4604C18.8797 22.4604 21.2719 22.3089 23.8002 22.0061C22.1348 16.9039 19.9092 12.2938 17.1235 8.17566C14.3225 12.9297 12.0742 17.5398 10.3785 22.0061ZM29.1144 31.4309L31.0221 31.3854H31.7261C31.9532 31.3854 32.1803 31.4006 32.4074 31.4309C29.7276 20.0001 25.6701 10.5905 20.2348 3.20213L18.4634 5.95006C21.5822 10.2196 24.0955 15.2461 26.0031 21.0296C27.7745 26.5557 28.8116 30.0228 29.1144 31.4309ZM13.0129 34.474C11.4535 34.0047 9.48528 33.77 7.10828 33.77C4.73128 33.77 2.76307 34.0047 1.20364 34.474C0.855416 34.474 0.567754 34.3529 0.340652 34.1107C0.113551 33.8684 0 33.5959 0 33.2931C0 32.6572 0.325512 32.256 0.976537 32.0895C2.0212 31.8169 3.39895 31.6125 5.10979 31.4763C7.10828 21.7563 11.7941 11.4308 19.1674 0.499624C19.4096 0.166541 19.6821 0 19.9849 0C20.4997 0 20.8631 0.136261 21.075 0.408783C27.3733 8.44818 31.9759 18.8267 34.8828 31.5444C36.4271 31.6807 37.9638 31.8624 39.493 32.0895C39.7958 32.1349 40.038 32.2711 40.2197 32.4982C40.4165 32.7253 40.5149 32.9903 40.5149 33.2931C40.5149 33.5959 40.3787 33.8684 40.1061 34.1107C39.8488 34.3529 39.6444 34.474 39.493 34.474C39.281 34.474 38.8192 34.4059 38.1077 34.2696C35.1705 33.7397 31.5141 33.6337 27.1386 33.9517C25.8517 34.0425 24.8828 34.1485 24.2317 34.2696C23.5807 34.3908 23.2401 34.4513 23.2098 34.4513C23.1795 34.4665 23.0735 34.474 22.8918 34.474C22.7102 34.474 22.4982 34.3453 22.256 34.088C22.0289 33.8306 21.9153 33.558 21.9153 33.2704C21.9153 32.9827 22.0061 32.7253 22.1878 32.4982C22.3846 32.2711 22.7102 32.1197 23.1644 32.044C23.6186 31.9532 24.156 31.8775 24.7768 31.8169C25.3975 31.7412 26.0334 31.6655 26.6844 31.5898C26.0183 29.0614 25.3067 26.6239 24.5497 24.2772C21.8699 24.6557 19.4172 24.8449 17.1916 24.8449C14.966 24.8449 12.4149 24.6557 9.53827 24.2772C8.73584 26.6693 8.08482 29.0387 7.58519 31.3854C9.50799 31.446 11.4156 31.6807 13.3082 32.0895C13.5807 32.1349 13.8002 32.2711 13.9667 32.4982C14.1484 32.7253 14.2393 32.9979 14.2393 33.3158C14.2393 33.6186 14.103 33.8836 13.8305 34.1107C13.5731 34.3529 13.3006 34.474 13.0129 34.474Z" fill="white"/>
<path d="M30.3244 29.2035C25.1162 31.7773 22.5121 36.554 22.5121 43.5336C22.5121 48.1967 23.8672 51.7319 26.5772 54.1392C27.4705 54.9416 28.5303 55.6684 29.7567 56.3194C27.1829 53.2005 25.8959 48.6585 25.8959 42.6933C25.8959 36.7735 27.3721 32.2769 30.3244 29.2035ZM37.4781 25.2065C41.7022 25.2065 45.0558 26.6826 47.5387 29.6349L48.7878 26.0467C48.9846 25.4866 49.3026 25.2065 49.7416 25.2065C50.1807 25.2065 50.5138 25.3352 50.7409 25.5925C50.9831 25.8348 51.1042 26.0694 51.1042 26.2966C51.1042 26.5085 51.0739 26.6751 51.0134 26.7962L47.4025 37.3564C47.2511 37.8712 46.9331 38.1285 46.4486 38.1285C45.9793 38.1285 45.6311 37.9999 45.404 37.7425C45.1769 37.4851 45.0633 37.2656 45.0633 37.0839C45.0633 36.8871 45.0936 36.7281 45.1542 36.607L46.6076 32.3602C45.3207 30.3011 43.6023 28.8931 41.4524 28.1361C40.7408 27.8938 39.8551 27.7727 38.7953 27.7727C37.7506 27.7727 36.6833 27.9847 35.5932 28.4086C34.5182 28.8325 33.572 29.4078 32.7544 30.1346C31.952 30.8613 31.2631 31.7167 30.6878 32.7008C30.1125 33.6698 29.6507 34.7069 29.3025 35.8121C28.6212 37.9014 28.2805 40.1952 28.2805 42.6933C28.2805 46.3723 28.8558 49.6047 30.0065 52.3905C30.8997 54.5404 32.1639 56.0696 33.7991 56.978C34.6469 57.4473 35.6765 57.682 36.8877 57.682C38.114 57.682 39.3176 57.4927 40.4986 57.1142C41.6946 56.7357 42.7772 56.1907 43.7461 55.4791C45.79 54.0105 47.2208 52.0726 48.0384 49.6653C48.2049 49.0446 48.5228 48.7342 48.9922 48.7342C49.4615 48.7342 49.8097 48.8629 50.0368 49.1203C50.2639 49.3776 50.3775 49.6577 50.3775 49.9605V50.2331C50.3624 50.2633 50.3094 50.4147 50.2185 50.6873C50.1428 50.9598 50.0141 51.3156 49.8325 51.7546C48.3941 55.0098 46.0626 57.3489 42.8377 58.7721C40.8998 59.6199 38.7499 60.0287 36.388 59.9984C34.0413 59.9833 31.8384 59.5821 29.7794 58.7948C27.7355 57.9924 26.0019 56.872 24.5788 55.4337C21.6113 52.4814 20.1276 48.5147 20.1276 43.5336C20.1276 37.1293 22.0201 32.345 25.8051 29.1807C28.9997 26.5312 32.8907 25.2065 37.4781 25.2065Z" fill="white"/>
<path d="M104.556 12.7882C104.247 12.8367 103.832 12.8609 103.312 12.8609H103.239V19.6921C103.542 19.6921 103.802 19.6921 104.02 19.6921C104.244 19.6921 104.423 19.6982 104.556 19.7103V12.7882ZM103.33 11.8889C103.984 11.8889 104.553 11.8405 105.038 11.7436C105.177 11.7436 105.292 11.7951 105.383 11.898C105.48 11.9949 105.528 12.1039 105.528 12.225V13.1607C106.237 12.1191 107.209 11.5982 108.444 11.5982C109.686 11.5982 110.494 12.3613 110.869 13.8874C111.003 14.4082 111.069 14.9139 111.069 15.4045C111.069 15.895 111.054 16.3219 111.024 16.6853C110.994 17.0426 110.954 17.3999 110.906 17.7572C110.821 18.4658 110.715 19.0774 110.588 19.5922C110.818 19.6043 111.054 19.6164 111.296 19.6285C111.545 19.6407 111.766 19.6558 111.96 19.674C112.311 19.7164 112.486 19.895 112.486 20.2099C112.474 20.331 112.42 20.434 112.323 20.5188C112.226 20.5975 112.117 20.6369 111.996 20.6369H111.96C111.378 20.5763 110.742 20.546 110.052 20.546C109.368 20.546 108.726 20.6127 108.126 20.7459C107.999 20.7459 107.887 20.6974 107.79 20.6005C107.693 20.4976 107.645 20.3886 107.645 20.2735C107.645 20.1584 107.681 20.0555 107.754 19.9647C107.832 19.8738 107.963 19.8133 108.144 19.783C108.417 19.7285 108.901 19.6709 109.598 19.6104C109.798 18.92 109.934 18.169 110.007 17.3575C110.079 16.54 110.116 15.9828 110.116 15.6861C110.116 13.5907 109.558 12.543 108.444 12.543C107.645 12.543 106.951 12.9094 106.364 13.6421C105.807 14.3265 105.528 15.0411 105.528 15.786V15.8042L105.51 19.8011C105.619 19.8133 105.725 19.8254 105.828 19.8375C105.931 19.8435 106.037 19.8556 106.146 19.8738C106.261 19.8859 106.358 19.9374 106.436 20.0282C106.521 20.113 106.564 20.219 106.564 20.3462C106.564 20.4734 106.512 20.5854 106.409 20.6823C106.312 20.7792 106.228 20.8276 106.155 20.8276C106.082 20.8276 106.04 20.8186 106.028 20.8004C104.938 20.6914 104.187 20.6369 103.775 20.6369C102.969 20.6369 102.334 20.6793 101.867 20.7641C101.401 20.8549 101.122 20.9003 101.031 20.9003C100.947 20.9003 100.862 20.8488 100.777 20.7459C100.692 20.6429 100.65 20.5339 100.65 20.4189C100.65 20.3038 100.683 20.2008 100.75 20.11C100.816 20.0192 100.935 19.9586 101.104 19.9283C101.443 19.8617 101.837 19.8072 102.285 19.7648V12.8246C101.474 12.7882 101.01 12.7459 100.895 12.6974C100.774 12.6853 100.674 12.6338 100.595 12.543C100.523 12.4521 100.486 12.3401 100.486 12.2069C100.486 12.0736 100.538 11.9646 100.641 11.8798C100.744 11.789 100.829 11.7436 100.895 11.7436C100.968 11.7436 101.007 11.7466 101.013 11.7527C101.025 11.7587 101.098 11.7678 101.231 11.7799C101.365 11.792 101.537 11.8072 101.749 11.8253C102.252 11.8677 102.779 11.8889 103.33 11.8889Z" fill="white"/>
<path d="M93.0647 12.434C91.9807 12.8518 91.2661 13.6361 90.9209 14.7867C90.7998 15.1864 90.7392 15.6376 90.7392 16.1403C90.7392 16.6429 90.7967 17.0941 90.9118 17.4938C91.0269 17.8935 91.1813 18.2447 91.3751 18.5475C91.7506 19.1108 92.2714 19.5286 92.9376 19.8011C92.3319 18.9594 92.0291 17.7239 92.0291 16.0948C92.0291 14.4658 92.3743 13.2455 93.0647 12.434ZM97.6885 18.811C97.9732 18.4476 98.1881 18.0328 98.3335 17.5665C98.4849 17.1001 98.5606 16.6702 98.5606 16.2765C98.5606 15.8829 98.5273 15.5347 98.4607 15.2319C98.394 14.9291 98.2972 14.6353 98.17 14.3507C98.0428 14.0661 97.8884 13.7996 97.7067 13.5513C97.525 13.303 97.3221 13.085 97.0981 12.8973C96.6075 12.5036 96.0716 12.3068 95.4902 12.3068C94.3153 12.3068 93.5492 12.9972 93.1919 14.378C93.0587 14.8867 92.9921 15.359 92.9921 15.7951C92.9921 16.225 93.0042 16.5914 93.0284 16.8942C93.0526 17.191 93.095 17.4877 93.1556 17.7845C93.2161 18.0752 93.2979 18.3568 93.4008 18.6293C93.5038 18.9018 93.637 19.141 93.8005 19.3469C94.1578 19.7951 94.6151 20.0192 95.1722 20.0192C95.7354 20.0192 96.223 19.9102 96.6348 19.6921C97.0526 19.4681 97.4039 19.1743 97.6885 18.811ZM99.5053 16.1766C99.5053 16.873 99.3751 17.5241 99.1147 18.1297C98.8543 18.7353 98.5031 19.2561 98.061 19.6921C97.1223 20.6066 95.9837 21.0638 94.6454 21.0638C93.1737 21.0638 91.9958 20.6157 91.1117 19.7194C90.2335 18.8291 89.7945 17.6331 89.7945 16.1312C89.7945 14.708 90.2608 13.5271 91.1934 12.5884C92.1139 11.6558 93.2646 11.1894 94.6454 11.1894C96.0504 11.1894 97.2192 11.68 98.1518 12.6611C99.0542 13.6058 99.5053 14.7777 99.5053 16.1766Z" fill="white"/>
<path d="M87.26 18.6111C87.3448 18.3871 87.3872 18.1721 87.3872 17.9662C87.3872 17.7603 87.3357 17.5634 87.2328 17.3757C87.1359 17.188 87.0057 17.0275 86.8421 16.8942C86.6786 16.755 86.4909 16.6399 86.2789 16.549C86.067 16.4521 85.849 16.3704 85.6249 16.3038C85.4008 16.2372 85.1798 16.1827 84.9617 16.1403C84.7437 16.0918 84.5287 16.0434 84.3168 15.9949C84.1109 15.9465 83.8747 15.895 83.6082 15.8405C83.3478 15.786 83.0844 15.7254 82.8179 15.6588C82.5575 15.5861 82.3031 15.4983 82.0548 15.3954C81.8126 15.2924 81.5916 15.1683 81.3917 15.0229C80.9557 14.7141 80.6862 14.3083 80.5832 13.8057C80.4318 14.1327 80.3561 14.4567 80.3561 14.7777C80.3561 15.0986 80.4106 15.3681 80.5196 15.5861C80.6347 15.8042 80.7831 15.9949 80.9648 16.1584C81.1525 16.3219 81.3645 16.4612 81.6006 16.5763C81.8368 16.6853 82.0821 16.7792 82.3364 16.8579C82.7846 16.9851 83.1752 17.0668 83.5083 17.1032C83.8474 17.1395 84.126 17.1758 84.344 17.2122C84.5681 17.2425 84.8013 17.2849 85.0435 17.3394C85.2857 17.3939 85.528 17.4605 85.7702 17.5392C86.0125 17.6119 86.2365 17.6997 86.4424 17.8026C86.8966 18.0328 87.1692 18.3023 87.26 18.6111ZM86.2153 13.2697C85.4341 12.652 84.4349 12.3431 83.2176 12.3431C82.4848 12.3431 81.964 12.543 81.6551 12.9427C81.5461 13.088 81.4916 13.2606 81.4916 13.4605C81.4916 13.6603 81.5522 13.8329 81.6733 13.9783C81.7944 14.1175 81.9489 14.2417 82.1366 14.3507C82.3243 14.4597 82.5333 14.5536 82.7634 14.6323C82.9996 14.711 83.2297 14.7777 83.4538 14.8322C83.6839 14.8867 83.8959 14.9321 84.0897 14.9684C84.2895 15.0048 84.5227 15.0502 84.7891 15.1047C85.0617 15.1592 85.419 15.2561 85.8611 15.3954C86.3092 15.5286 86.718 15.7073 87.0874 15.9313C87.9231 16.4521 88.341 17.1516 88.341 18.0297C88.341 18.9987 87.8808 19.7769 86.9602 20.3644C86.1366 20.8912 85.2494 21.1547 84.2986 21.1547C82.7059 21.1547 81.3675 20.6914 80.2835 19.7648V20.0737C80.2835 20.1706 80.2895 20.2644 80.3016 20.3553V20.3916C80.3016 20.5127 80.2592 20.6217 80.1744 20.7186C80.0957 20.8155 79.9897 20.864 79.8565 20.864C79.7293 20.864 79.6143 20.8216 79.5113 20.7368C79.4144 20.6581 79.3599 20.5581 79.3478 20.437C79.3357 20.3159 79.3296 20.1948 79.3296 20.0737V19.6921C79.3296 19.2076 79.3448 18.7807 79.375 18.4113C79.4053 18.0358 79.4235 17.8148 79.4295 17.7481C79.4417 17.6815 79.4901 17.6089 79.5749 17.5301C79.6657 17.4453 79.7778 17.4029 79.911 17.4029C80.0503 17.4029 80.1623 17.4514 80.2471 17.5483C80.3319 17.6452 80.3743 17.7512 80.3743 17.8662V17.9207C80.3561 18.0843 80.338 18.278 80.3198 18.5021C81.3735 19.6285 82.6998 20.1918 84.2986 20.1918C85.0132 20.1918 85.5916 20.0737 86.0337 19.8375C86.3304 19.68 86.4788 19.4802 86.4788 19.2379C86.4788 18.7292 85.6642 18.3568 84.0352 18.1206C83.8717 18.0964 83.6385 18.0691 83.3357 18.0388C83.039 18.0025 82.6362 17.9117 82.1275 17.7663C81.6249 17.6149 81.1707 17.409 80.7649 17.1486C79.8626 16.5672 79.4114 15.7951 79.4114 14.8322C79.4114 13.8087 79.8081 12.9669 80.6014 12.3068C81.3281 11.6951 82.2002 11.3893 83.2176 11.3893C84.5318 11.3893 85.6491 11.7072 86.5696 12.3431C86.7998 11.7739 86.9966 11.4499 87.1601 11.3711C87.2388 11.3348 87.3297 11.3166 87.4326 11.3166C87.5416 11.3166 87.6415 11.3651 87.7324 11.462C87.8232 11.5528 87.8686 11.6527 87.8686 11.7617C87.8686 11.8708 87.799 12.0434 87.6597 12.2795C87.26 12.9639 87.0087 13.7209 86.9057 14.5506C86.8876 14.6656 86.8331 14.7625 86.7422 14.8412C86.6514 14.92 86.5424 14.9593 86.4152 14.9593C86.288 14.9593 86.179 14.9109 86.0882 14.814C85.9973 14.711 85.9519 14.599 85.9519 14.4779V14.4052C86.0185 14.0297 86.1063 13.6512 86.2153 13.2697Z" fill="white"/>
<path d="M71.8989 12.7337C71.6687 12.7701 71.2509 12.7882 70.6453 12.7882H70.5726V19.465C70.6877 19.4529 70.7997 19.4469 70.9087 19.4469C70.9087 19.4469 71.2388 19.4469 71.8989 19.4469V12.7337ZM76.9769 14.7504C77.0132 14.6717 77.0314 14.5627 77.0314 14.4234C77.0314 14.2841 76.9647 14.1509 76.8315 14.0237C76.7043 13.8904 76.5469 13.8238 76.3591 13.8238C76.1714 13.8238 76.0109 13.8904 75.8777 14.0237C75.7505 14.1509 75.6869 14.2841 75.6869 14.4234C75.6869 14.5627 75.7051 14.6717 75.7414 14.7504C75.7778 14.8291 75.8262 14.9018 75.8868 14.9684C76.0139 15.1017 76.1714 15.1683 76.3591 15.1683C76.6438 15.1683 76.8497 15.029 76.9769 14.7504ZM72.8618 12.8246C73.4674 11.9828 74.2668 11.5619 75.26 11.5619C76.0836 11.5861 76.7497 11.8374 77.2585 12.3159C77.7793 12.7943 78.0397 13.4211 78.0397 14.1963C78.0397 14.711 77.8883 15.1562 77.5855 15.5316C77.2706 15.9192 76.8618 16.113 76.3591 16.113C75.911 16.113 75.5295 15.9556 75.2145 15.6406C74.8996 15.3257 74.7422 14.9442 74.7422 14.496C74.7422 14.054 74.8996 13.6724 75.2145 13.3515C75.5295 13.0244 75.911 12.8609 76.3591 12.8609C76.3894 12.8609 76.4167 12.8639 76.4409 12.87C76.4712 12.8761 76.5015 12.8791 76.5317 12.8791C76.2108 12.6308 75.8323 12.5066 75.3962 12.5066C74.9602 12.5066 74.615 12.5793 74.3606 12.7247C74.1063 12.8639 73.8883 13.0426 73.7066 13.2606C73.531 13.4726 73.3886 13.7057 73.2796 13.9601C73.1706 14.2084 73.0858 14.4415 73.0253 14.6596C72.9163 15.029 72.8618 15.3106 72.8618 15.5044L72.8436 19.5377C73.0556 19.5559 73.2675 19.5831 73.4795 19.6195C73.6975 19.6558 73.8913 19.6921 74.0609 19.7285C74.3758 19.789 74.5332 19.9495 74.5332 20.2099C74.5332 20.3432 74.4818 20.4552 74.3788 20.546C74.2759 20.6308 74.1668 20.6732 74.0518 20.6732H73.9609C72.9496 20.4855 72.0442 20.3916 71.2448 20.3916C70.4575 20.3916 69.5582 20.4855 68.5468 20.6732H68.456C68.3167 20.6732 68.2047 20.6278 68.1199 20.537C68.0351 20.4401 67.9927 20.3341 67.9927 20.219C67.9927 19.9586 68.1169 19.7951 68.3652 19.7285C68.5771 19.6921 68.7891 19.6558 69.001 19.6195C69.213 19.5831 69.4219 19.5559 69.6278 19.5377V12.7701C68.8284 12.7337 68.3621 12.6883 68.2289 12.6338C68.1078 12.6217 68.0079 12.5733 67.9291 12.4885C67.8565 12.3976 67.8201 12.2856 67.8201 12.1524C67.8201 12.0131 67.8716 11.901 67.9745 11.8162C68.0836 11.7315 68.1926 11.6891 68.3016 11.6891H68.3652C68.4076 11.7315 68.7285 11.7678 69.3281 11.7981C69.9337 11.8223 70.3788 11.8344 70.6634 11.8344C71.3356 11.8344 71.7777 11.8102 71.9897 11.7617C72.2017 11.7133 72.3531 11.6891 72.4439 11.6891C72.5408 11.6891 72.6347 11.7405 72.7255 11.8435C72.8163 11.9404 72.8618 12.0494 72.8618 12.1705V12.8246Z" fill="white"/>
<path d="M61.0252 12.4885C59.4325 13.0638 58.6361 14.272 58.6361 16.113C58.6361 17.2697 59.0358 18.2387 59.8352 19.0199C60.0835 19.2622 60.3682 19.465 60.6891 19.6285C60.1683 18.8534 59.9079 17.7936 59.9079 16.4491C59.9079 15.4983 59.9775 14.7898 60.1168 14.3235C60.3348 13.5846 60.6376 12.973 61.0252 12.4885ZM60.8708 16.0585C61.5491 16.2705 62.3273 16.3764 63.2054 16.3764C64.0835 16.3764 64.9374 16.1917 65.7671 15.8223V15.6679C65.7671 14.2023 65.2978 13.191 64.3591 12.6338C64.0321 12.44 63.6384 12.3098 63.1782 12.2432C61.7005 12.4128 60.9314 13.6845 60.8708 16.0585ZM66.7119 15.6497L66.6937 16.1766C66.6331 16.6793 65.8337 17.0366 64.2955 17.2485C63.805 17.3151 63.2841 17.3484 62.733 17.3484C62.188 17.3484 61.5733 17.2546 60.889 17.0668C61.0222 18.4416 61.4825 19.3712 62.2698 19.8556C62.5604 20.0313 62.8451 20.1191 63.1237 20.1191C63.4083 20.1191 63.6475 20.1009 63.8413 20.0646C64.0351 20.0222 64.2259 19.9647 64.4136 19.892C64.8375 19.7164 65.1343 19.5044 65.3038 19.2561C65.4068 19.135 65.5249 19.0744 65.6581 19.0744C65.7974 19.0744 65.9155 19.1259 66.0124 19.2288C66.1093 19.3257 66.1577 19.4378 66.1577 19.565C66.1577 19.6861 66.1184 19.783 66.0396 19.8556C65.7792 20.2614 65.2947 20.5824 64.5862 20.8186C63.272 21.2485 62.0093 21.2122 60.7981 20.7095C59.5264 20.1887 58.624 19.3106 58.0911 18.0752C57.8246 17.4696 57.6914 16.8004 57.6914 16.0676C57.6914 15.3288 57.8064 14.6596 58.0366 14.06C58.2667 13.4544 58.5937 12.9457 59.0177 12.5339C59.8837 11.686 61.0797 11.2621 62.6059 11.2621C65.3432 11.3772 66.7119 12.8397 66.7119 15.6497Z" fill="white"/>
<path d="M51.9684 13.7693C51.7989 13.2606 51.4537 12.8579 50.9328 12.5611C50.4786 12.3007 50.0032 12.1705 49.5066 12.1705C49.01 12.1705 48.6013 12.2371 48.2803 12.3704C47.9593 12.4976 47.6777 12.6732 47.4355 12.8973C47.1932 13.1153 46.9843 13.3727 46.8087 13.6694C46.6391 13.9601 46.4998 14.2659 46.3908 14.5869C46.1849 15.2046 46.0819 15.8011 46.0819 16.3764C46.088 16.9457 46.1486 17.4363 46.2636 17.8481C46.3847 18.2538 46.5604 18.6142 46.7905 18.9291C47.3053 19.6316 47.9805 19.9828 48.8163 19.9828C49.5369 19.9828 50.1758 19.6467 50.733 18.9745C51.1509 18.4597 51.4809 17.8087 51.7232 17.0214C51.923 16.3613 52.0048 15.9162 51.9684 15.6861V13.7693ZM52.9313 19.8375C53.3553 19.7466 53.7943 19.6861 54.2485 19.6558V8.41881C53.9397 8.46726 53.5248 8.49148 53.004 8.49148H52.9313V19.8375ZM51.4234 7.46498C51.6414 7.48315 51.8897 7.50132 52.1683 7.51949C52.4468 7.5316 52.8223 7.53765 53.2947 7.53765C53.7671 7.53765 54.2092 7.48921 54.621 7.39231H54.7391C54.8783 7.39231 54.9904 7.44076 55.0752 7.53765C55.16 7.62849 55.2023 7.73448 55.2023 7.8556V19.5922H55.384C55.808 19.5922 56.1047 19.6013 56.2743 19.6195C56.4499 19.6376 56.5771 19.6921 56.6558 19.783C56.7406 19.8738 56.783 19.9859 56.783 20.1191C56.783 20.2523 56.7285 20.3644 56.6195 20.4552C56.5165 20.54 56.4105 20.5824 56.3015 20.5824H56.2652C55.9624 20.5581 55.6414 20.546 55.3023 20.546C54.9692 20.546 54.6331 20.5642 54.2939 20.6005C53.9548 20.6369 53.6581 20.6762 53.4037 20.7186C53.1554 20.7671 52.9556 20.8095 52.8042 20.8458C52.6588 20.8821 52.5801 20.9033 52.568 20.9094C52.5559 20.9155 52.5377 20.9185 52.5135 20.9185H52.4499C52.3106 20.9185 52.1955 20.867 52.1047 20.7641C52.0138 20.6672 51.9684 20.5581 51.9684 20.437V18.8927C51.5203 19.8254 50.8117 20.4552 49.8427 20.7822C49.5218 20.8852 49.1281 20.9366 48.6618 20.9366C48.2016 20.9366 47.7443 20.8186 47.2901 20.5824C46.8359 20.3462 46.4514 20.0313 46.1365 19.6376C45.4824 18.8261 45.1493 17.8087 45.1372 16.5854C45.1372 15.138 45.4885 13.9056 46.191 12.8882C46.948 11.7799 48.0108 11.2258 49.3795 11.2258C50.409 11.2258 51.272 11.5225 51.9684 12.116V8.45514C51.9684 8.45514 51.5082 8.41578 50.5876 8.33705C50.4665 8.31888 50.3636 8.26438 50.2788 8.17354C50.2001 8.0827 50.1607 7.97369 50.1607 7.84651C50.1607 7.71934 50.2091 7.61335 50.306 7.52857C50.409 7.43773 50.521 7.39231 50.6421 7.39231H50.6967C50.7027 7.39231 50.7724 7.40139 50.9056 7.41956C51.0388 7.43167 51.2114 7.44681 51.4234 7.46498Z" fill="white"/>
<path d="M36.3892 12.7882C36.0804 12.8367 35.6656 12.8609 35.1447 12.8609H35.0721V19.6921C35.3749 19.6921 35.6353 19.6921 35.8533 19.6921C36.0774 19.6921 36.256 19.6982 36.3892 19.7103V12.7882ZM35.1629 11.8889C35.817 11.8889 36.3862 11.8405 36.8707 11.7436C37.01 11.7436 37.1251 11.7951 37.2159 11.898C37.3128 11.9949 37.3612 12.1039 37.3612 12.225V13.1607C38.0698 12.1191 39.0418 11.5982 40.2772 11.5982C41.5187 11.5982 42.3272 12.3613 42.7027 13.8874C42.8359 14.4082 42.9025 14.9139 42.9025 15.4045C42.9025 15.895 42.8874 16.3219 42.8571 16.6853C42.8268 17.0426 42.7875 17.3999 42.739 17.7572C42.6542 18.4658 42.5482 19.0774 42.4211 19.5922C42.6512 19.6043 42.8874 19.6164 43.1296 19.6285C43.3779 19.6407 43.599 19.6558 43.7928 19.674C44.144 19.7164 44.3196 19.895 44.3196 20.2099C44.3075 20.331 44.253 20.434 44.1561 20.5188C44.0592 20.5975 43.9502 20.6369 43.8291 20.6369H43.7928C43.2114 20.5763 42.5755 20.546 41.8851 20.546C41.2008 20.546 40.5588 20.6127 39.9593 20.7459C39.8321 20.7459 39.7201 20.6974 39.6232 20.6005C39.5263 20.4976 39.4778 20.3886 39.4778 20.2735C39.4778 20.1584 39.5142 20.0555 39.5868 19.9647C39.6656 19.8738 39.7958 19.8133 39.9775 19.783C40.25 19.7285 40.7345 19.6709 41.4309 19.6104C41.6308 18.92 41.767 18.169 41.8397 17.3575C41.9124 16.54 41.9487 15.9828 41.9487 15.6861C41.9487 13.5907 41.3915 12.543 40.2772 12.543C39.4778 12.543 38.7844 12.9094 38.197 13.6421C37.6398 14.3265 37.3612 15.0411 37.3612 15.786V15.8042L37.3431 19.8011C37.4521 19.8133 37.5581 19.8254 37.661 19.8375C37.764 19.8435 37.87 19.8556 37.979 19.8738C38.094 19.8859 38.1909 19.9374 38.2697 20.0282C38.3544 20.113 38.3968 20.219 38.3968 20.3462C38.3968 20.4734 38.3454 20.5854 38.2424 20.6823C38.1455 20.7792 38.0607 20.8276 37.988 20.8276C37.9154 20.8276 37.873 20.8186 37.8609 20.8004C36.7708 20.6914 36.0198 20.6369 35.608 20.6369C34.8026 20.6369 34.1667 20.6793 33.7004 20.7641C33.2341 20.8549 32.9555 20.9003 32.8646 20.9003C32.7798 20.9003 32.6951 20.8488 32.6103 20.7459C32.5255 20.6429 32.4831 20.5339 32.4831 20.4189C32.4831 20.3038 32.5164 20.2008 32.583 20.11C32.6496 20.0192 32.7677 19.9586 32.9373 19.9283C33.2764 19.8617 33.6701 19.8072 34.1182 19.7648V12.8246C33.3067 12.7882 32.8434 12.7459 32.7284 12.6974C32.6073 12.6853 32.5073 12.6338 32.4286 12.543C32.3559 12.4521 32.3196 12.3401 32.3196 12.2069C32.3196 12.0736 32.3711 11.9646 32.474 11.8798C32.577 11.789 32.6618 11.7436 32.7284 11.7436C32.801 11.7436 32.8404 11.7466 32.8465 11.7527C32.8586 11.7587 32.9312 11.7678 33.0645 11.7799C33.1977 11.792 33.3703 11.8072 33.5823 11.8253C34.0849 11.8677 34.6118 11.8889 35.1629 11.8889Z" fill="white"/>
<path d="M88.5251 49.6865C88.5009 49.4806 88.4888 49.2626 88.4888 49.0325H88.1527C87.1595 49.0325 86.1845 49.2141 85.2276 49.5775C84.0043 50.0378 83.3926 50.6948 83.3926 51.5487C83.3926 51.8637 83.5349 52.1089 83.8196 52.2845C84.0558 52.4238 84.3646 52.4935 84.7461 52.4935C85.1277 52.4935 85.5092 52.4117 85.8907 52.2482C86.2783 52.0786 86.6356 51.8606 86.9627 51.5942C87.544 51.1097 88.0649 50.4738 88.5251 49.6865ZM90.7144 51.9394C90.7325 51.7577 90.7416 51.3943 90.7416 50.8493C90.7416 50.3042 90.7295 49.7864 90.7053 49.2959C90.6871 48.7993 90.6417 48.3209 90.569 47.8606C90.4964 47.4003 90.3874 46.9673 90.242 46.5616C90.0967 46.1558 89.8998 45.8046 89.6515 45.5078C89.1004 44.8538 88.3344 44.5268 87.3533 44.5268C87.3351 44.5268 87.32 44.5328 87.3079 44.5449C87.2957 44.551 87.2806 44.554 87.2624 44.554H87.2988C88.2738 45.0809 88.9067 45.956 89.1973 47.1793C89.3609 47.8515 89.4487 48.4904 89.4608 49.096C89.4789 49.6956 89.488 50.168 89.488 50.5132C89.488 51.0582 89.4638 51.6063 89.4154 52.1574C89.8514 52.0665 90.2844 51.9939 90.7144 51.9394ZM92.2405 51.8394L92.8946 51.8576C93.0278 51.8697 93.1338 51.9212 93.2125 52.012C93.2973 52.1029 93.3397 52.2149 93.3397 52.3481C93.3397 52.4753 93.2943 52.5873 93.2034 52.6842C93.1186 52.7811 93.0096 52.8296 92.8764 52.8296H92.8401C92.7371 52.8175 92.6311 52.8114 92.5221 52.8114H92.2042C91.0959 52.8114 90.024 52.9598 88.9884 53.2565L88.8612 53.2747C88.7219 53.2747 88.6069 53.2202 88.516 53.1112C88.4313 53.0082 88.3889 52.9023 88.3889 52.7933V52.7206C88.3889 52.7085 88.404 52.5873 88.4343 52.3572C88.4646 52.121 88.4948 51.794 88.5251 51.3761C87.2957 52.7509 86.0179 53.4382 84.6916 53.4382C84.08 53.4382 83.5592 53.2687 83.1292 52.9295C82.6689 52.5722 82.4388 52.1392 82.4388 51.6305C82.4388 51.1218 82.5357 50.6948 82.7295 50.3496C82.9293 50.0044 83.1897 49.7047 83.5107 49.4503C83.8317 49.1899 84.195 48.9749 84.6008 48.8053C85.0126 48.6297 85.4305 48.4874 85.8544 48.3784C86.6417 48.1846 87.4078 48.0877 88.1527 48.0877H88.3707C88.3707 47.3186 88.1254 46.6464 87.6349 46.071C87.1141 45.4654 86.4812 45.1626 85.7363 45.1626C85.1792 45.1626 84.6583 45.4473 84.1739 46.0165C83.7015 46.5676 83.4653 47.146 83.4653 47.7516C83.4653 47.8727 83.4138 47.9757 83.3109 48.0605C83.214 48.1392 83.1019 48.1785 82.9748 48.1785C82.8476 48.1785 82.7355 48.1301 82.6386 48.0332C82.5417 47.9303 82.4933 47.7758 82.4933 47.5699C82.4933 47.364 82.5448 47.1036 82.6477 46.7887C82.7507 46.4677 82.8991 46.1558 83.0928 45.853C83.2927 45.5442 83.5319 45.2535 83.8105 44.981C84.0951 44.7084 84.4191 44.4662 84.7825 44.2542C85.5577 43.8061 86.3449 43.582 87.1443 43.582C87.9498 43.582 88.5917 43.688 89.0702 43.9C89.5546 44.1119 89.9574 44.3996 90.2783 44.7629C90.6054 45.1263 90.8628 45.5472 91.0505 46.0256C91.2382 46.5041 91.3805 47.0097 91.4774 47.5427C91.6288 48.3784 91.7045 49.4473 91.7045 50.7493L91.6864 51.8576L92.2405 51.8394Z" fill="white"/>
<path d="M78.0512 52.3481C77.6394 51.9908 77.4335 51.5427 77.4335 51.0037V40.5843L76.1345 40.9567V49.9227C76.1345 51.2429 76.5402 52.0181 77.3517 52.2482C77.5818 52.3088 77.815 52.3421 78.0512 52.3481ZM78.3873 43.691C79.1383 43.6668 79.8922 43.6244 80.6492 43.5638H80.6856C80.8188 43.5638 80.9308 43.6123 81.0217 43.7092C81.1125 43.8 81.1579 43.906 81.1579 44.0271C81.1579 44.1483 81.1156 44.2573 81.0308 44.3542C80.952 44.445 80.8521 44.4965 80.731 44.5086C79.8044 44.5813 79.0232 44.6267 78.3873 44.6448V51.0037C78.3873 51.3671 78.572 51.6244 78.9414 51.7758C79.0444 51.8182 79.1625 51.8394 79.2957 51.8394C79.435 51.8394 79.5561 51.797 79.6591 51.7123C79.7681 51.6214 79.8589 51.5094 79.9316 51.3761C80.0285 51.2005 80.1072 50.9946 80.1678 50.7584C80.2586 50.389 80.4312 50.2043 80.6856 50.2043C80.8249 50.2043 80.9369 50.2588 81.0217 50.3678C81.1125 50.4708 81.1579 50.5767 81.1579 50.6858V50.7857C80.9823 51.5911 80.6371 52.2149 80.1224 52.657C79.6076 53.093 78.9717 53.311 78.2147 53.311C76.846 53.311 75.9225 52.7509 75.4441 51.6305C75.2563 51.1945 75.1625 50.6252 75.1625 49.9227V44.6267C74.8899 44.6085 74.6144 44.5903 74.3358 44.5722C74.0633 44.554 73.8271 44.5328 73.6273 44.5086C73.2639 44.4723 73.0822 44.3118 73.0822 44.0271C73.0822 43.8878 73.1337 43.7758 73.2366 43.691C73.3456 43.6062 73.4547 43.5638 73.5637 43.5638H73.6L75.1625 43.6729V40.5843C75.1625 40.4813 75.1958 40.3874 75.2624 40.3027C75.329 40.2118 75.4138 40.1513 75.5167 40.121L77.7878 39.5124C77.812 39.4942 77.8725 39.4851 77.9694 39.4851C78.0724 39.4851 78.1663 39.5366 78.251 39.6395C78.3419 39.7425 78.3873 39.8545 78.3873 39.9756V43.691Z" fill="white"/>
<path d="M71.3472 50.8583C71.4319 50.6343 71.4743 50.4193 71.4743 50.2134C71.4743 50.0075 71.4229 49.8107 71.3199 49.6229C71.223 49.4352 71.0928 49.2747 70.9293 49.1415C70.7658 49.0022 70.578 48.8871 70.3661 48.7963C70.1541 48.6994 69.9361 48.6176 69.712 48.551C69.4879 48.4844 69.2669 48.4299 69.0489 48.3875C68.8309 48.339 68.6159 48.2906 68.4039 48.2421C68.198 48.1937 67.9618 48.1422 67.6954 48.0877C67.4349 48.0332 67.1715 47.9726 66.905 47.906C66.6446 47.8334 66.3903 47.7455 66.142 47.6426C65.8997 47.5396 65.6787 47.4155 65.4788 47.2701C65.0428 46.9613 64.7733 46.5555 64.6704 46.0529C64.519 46.3799 64.4433 46.7039 64.4433 47.0249C64.4433 47.3458 64.4978 47.6153 64.6068 47.8334C64.7218 48.0514 64.8702 48.2421 65.0519 48.4057C65.2396 48.5692 65.4516 48.7085 65.6878 48.8235C65.924 48.9325 66.1692 49.0264 66.4236 49.1051C66.8717 49.2323 67.2624 49.3141 67.5954 49.3504C67.9346 49.3867 68.2132 49.4231 68.4312 49.4594C68.6552 49.4897 68.8884 49.5321 69.1306 49.5866C69.3729 49.6411 69.6151 49.7077 69.8574 49.7864C70.0996 49.8591 70.3237 49.9469 70.5296 50.0499C70.9838 50.28 71.2563 50.5495 71.3472 50.8583ZM70.3025 45.5169C69.5213 44.8992 68.522 44.5903 67.3047 44.5903C66.572 44.5903 66.0511 44.7902 65.7423 45.1899C65.6333 45.3352 65.5788 45.5078 65.5788 45.7077C65.5788 45.9075 65.6393 46.0801 65.7605 46.2255C65.8816 46.3648 66.036 46.4889 66.2237 46.5979C66.4115 46.7069 66.6204 46.8008 66.8505 46.8795C67.0867 46.9583 67.3169 47.0249 67.5409 47.0794C67.7711 47.1339 67.983 47.1793 68.1768 47.2156C68.3767 47.252 68.6098 47.2974 68.8763 47.3519C69.1488 47.4064 69.5061 47.5033 69.9482 47.6426C70.3964 47.7758 70.8051 47.9545 71.1746 48.1785C72.0103 48.6994 72.4282 49.3988 72.4282 50.277C72.4282 51.2459 71.9679 52.0241 71.0474 52.6116C70.2238 53.1384 69.3365 53.4019 68.3857 53.4019C66.793 53.4019 65.4546 52.9386 64.3706 52.012V52.3209C64.3706 52.4178 64.3766 52.5116 64.3888 52.6025V52.6388C64.3888 52.7599 64.3464 52.869 64.2616 52.9659C64.1829 53.0627 64.0769 53.1112 63.9436 53.1112C63.8165 53.1112 63.7014 53.0688 63.5984 52.984C63.5015 52.9053 63.447 52.8054 63.4349 52.6842C63.4228 52.5631 63.4168 52.442 63.4168 52.3209V51.9394C63.4168 51.4549 63.4319 51.0279 63.4622 50.6585C63.4925 50.283 63.5106 50.062 63.5167 49.9954C63.5288 49.9287 63.5772 49.8561 63.662 49.7773C63.7529 49.6926 63.8649 49.6502 63.9981 49.6502C64.1374 49.6502 64.2495 49.6986 64.3343 49.7955C64.419 49.8924 64.4614 49.9984 64.4614 50.1135V50.168C64.4433 50.3315 64.4251 50.5253 64.4069 50.7493C65.4607 51.8758 66.787 52.439 68.3857 52.439C69.1004 52.439 69.6787 52.3209 70.1208 52.0847C70.4176 51.9272 70.5659 51.7274 70.5659 51.4851C70.5659 50.9764 69.7514 50.604 68.1223 50.3678C67.9588 50.3436 67.7256 50.3163 67.4228 50.2861C67.1261 50.2497 66.7234 50.1589 66.2147 50.0135C65.712 49.8621 65.2578 49.6562 64.852 49.3958C63.9497 48.8144 63.4985 48.0423 63.4985 47.0794C63.4985 46.0559 63.8952 45.2141 64.6885 44.554C65.4153 43.9423 66.2873 43.6365 67.3047 43.6365C68.6189 43.6365 69.7362 43.9545 70.6568 44.5903C70.8869 44.0211 71.0837 43.6971 71.2472 43.6183C71.326 43.582 71.4168 43.5638 71.5198 43.5638C71.6288 43.5638 71.7287 43.6123 71.8195 43.7092C71.9104 43.8 71.9558 43.9 71.9558 44.009C71.9558 44.118 71.8861 44.2906 71.7469 44.5268C71.3472 45.2111 71.0958 45.9681 70.9929 46.7978C70.9747 46.9128 70.9202 47.0097 70.8294 47.0885C70.7385 47.1672 70.6295 47.2066 70.5023 47.2066C70.3752 47.2066 70.2661 47.1581 70.1753 47.0612C70.0845 46.9583 70.039 46.8462 70.039 46.7251V46.6524C70.1057 46.277 70.1935 45.8984 70.3025 45.5169Z" fill="white"/>
<path d="M55.3138 44.6812C54.2297 45.0991 53.5151 45.8833 53.1699 47.034C53.0488 47.4337 52.9883 47.8848 52.9883 48.3875C52.9883 48.8901 53.0458 49.3413 53.1609 49.741C53.2759 50.1407 53.4303 50.492 53.6241 50.7948C53.9996 51.358 54.5204 51.7758 55.1866 52.0484C54.581 51.2066 54.2782 49.9711 54.2782 48.3421C54.2782 46.713 54.6234 45.4927 55.3138 44.6812ZM59.9376 51.0582C60.2222 50.6948 60.4372 50.28 60.5825 49.8137C60.7339 49.3474 60.8096 48.9174 60.8096 48.5237C60.8096 48.1301 60.7763 47.7819 60.7097 47.4791C60.6431 47.1763 60.5462 46.8826 60.419 46.5979C60.2918 46.3133 60.1374 46.0468 59.9557 45.7985C59.7741 45.5502 59.5712 45.3322 59.3471 45.1445C58.8566 44.7508 58.3206 44.554 57.7392 44.554C56.5644 44.554 55.7983 45.2444 55.441 46.6252C55.3077 47.1339 55.2411 47.6063 55.2411 48.0423C55.2411 48.4723 55.2532 48.8387 55.2774 49.1415C55.3017 49.4382 55.3441 49.735 55.4046 50.0317C55.4652 50.3224 55.5469 50.604 55.6499 50.8765C55.7528 51.149 55.8861 51.3883 56.0496 51.5942C56.4069 52.0423 56.8641 52.2664 57.4213 52.2664C57.9845 52.2664 58.472 52.1574 58.8838 51.9394C59.3017 51.7153 59.6529 51.4216 59.9376 51.0582ZM61.7544 48.4238C61.7544 49.1203 61.6242 49.7713 61.3638 50.3769C61.1034 50.9825 60.7521 51.5033 60.31 51.9394C59.3713 52.8538 58.2328 53.311 56.8944 53.311C55.4228 53.311 54.2449 52.8629 53.3607 51.9666C52.4826 51.0764 52.0435 49.8803 52.0435 48.3784C52.0435 46.9552 52.5098 45.7743 53.4425 44.8356C54.363 43.903 55.5136 43.4367 56.8944 43.4367C58.2994 43.4367 59.4682 43.9272 60.4009 44.9083C61.3032 45.853 61.7544 47.0249 61.7544 48.4238Z" fill="white"/>
</svg>
